<?xml version="1.0" encoding="utf-8"?>
<!DOCTYPE svg PUBLIC "-//W3C//DTD SVG 1.1//EN" "http://www.w3.org/Graphics/SVG/1.1/DTD/svg11.dtd">
<svg version="1.1" id="Layer_1" xmlns="http://www.w3.org/2000/svg" x="0" y="0" width="165" height="185">

	<path d="M89.6,120.5c9.2-2.7,15.8-7.9,19.8-15.6c4-7.7,7.1-22.7,9.3-44.9c1.9-18.2,3.6-30.4,5-36.5c1.4-6.1,4.3-11.1,8.6-14.8
		c4.3-3.7,9.9-5.6,16.9-5.6c4.1,0,8.5,0.6,13.3,1.8v5c-1-0.1-1.8-0.1-2.5-0.1c-3.7,0-6.9,2.3-9.5,6.8c-2.6,4.5-4.9,15.9-6.8,34
		c-1.8,16.1-3.9,27.6-6.1,34.4c-2.2,6.8-5.8,13.6-10.7,20.1c-4.9,6.6-10.4,11.5-16.3,14.8c-5.9,3.3-12.9,5.8-21.1,7.5v54.5H75.4
		v-54.5c-8.5-1.7-15.7-4.4-21.8-8c-6.1-3.6-11.4-8.6-16-15.1c-4.6-6.5-8-13.1-10.2-19.9c-2.2-6.8-4.3-18.8-6.2-36
		c-1.8-16.9-4.1-27.6-6.7-32C11.8,12,8.7,9.7,5,9.7c-0.8,0-1.7,0-2.6,0.1v-5c4.8-1.2,9.2-1.8,13.3-1.8c6.9,0,12.5,1.9,16.7,5.6
		c4.3,3.7,7.2,8.6,8.8,14.8c1.6,6.1,3.1,17.1,4.5,33c2.4,26,5.8,42.5,10.3,49.7c4.5,7.1,10.9,11.9,19.3,14.4V3.1h14.3V120.5z"/>

</svg>
